<svg width="7" height="13" viewBox="0 0 7 13" fill="none" xmlns="http://www.w3.org/2000/svg">
<rect width="7" height="13" fill="#EDEDED"/>
<g clip-path="url(#clip0_0_1)">
<rect width="1440" height="4894" transform="translate(-356 -217)" fill="white"/>
<g opacity="0.8">
<g opacity="0.4">
<mask id="path-1-inside-1_0_1" fill="white">
<path d="M-256 -109H39V1597C39 1598.1 38.1046 1599 37 1599H-254C-255.105 1599 -256 1598.1 -256 1597V-109Z"/>
</mask>
<path d="M-256 -109H39H-256ZM40 1597C40 1598.66 38.6569 1600 37 1600H-254C-255.657 1600 -257 1598.66 -257 1597H-255C-255 1597.55 -254.552 1598 -254 1598H37C37.5523 1598 38 1597.55 38 1597H40ZM-254 1600C-255.657 1600 -257 1598.66 -257 1597V-109H-255V1597C-255 1597.55 -254.552 1598 -254 1598V1600ZM40 -109V1597C40 1598.66 38.6569 1600 37 1600V1598C37.5523 1598 38 1597.55 38 1597V-109H40Z" fill="#BEBCBD" mask="url(#path-1-inside-1_0_1)"/>
</g>
</g>
<path d="M1 11.7415L5.73782 7.00373C6.08739 6.65416 6.08739 6.08739 5.73782 5.73782L1 1" stroke="#8A8989" stroke-width="1.8" stroke-linecap="round"/>
</g>
<defs>
<clipPath id="clip0_0_1">
<rect width="1440" height="4894" fill="white" transform="translate(-356 -217)"/>
</clipPath>
</defs>
</svg>
